<svg xmlns="http://www.w3.org/2000/svg" width="26.667" height="26.667" viewBox="0 0 26.667 26.667"><defs><style>.a{fill:#393939;}</style></defs><path class="a" d="M9,23.333A2.667,2.667,0,1,0,11.667,26,2.663,2.663,0,0,0,9,23.333ZM1,2V4.667H3.667l4.8,10.12-1.8,3.267a2.578,2.578,0,0,0-.333,1.28A2.675,2.675,0,0,0,9,22H25V19.333H9.56A.33.33,0,0,1,9.227,19l.04-.16,1.2-2.173H20.4a2.654,2.654,0,0,0,2.333-1.373L27.507,6.64a1.3,1.3,0,0,0,.16-.64,1.337,1.337,0,0,0-1.333-1.333H6.613L5.36,2H1ZM22.333,23.333A2.667,2.667,0,1,0,25,26,2.663,2.663,0,0,0,22.333,23.333Z" transform="translate(-1 -2)"/></svg>