<svg xmlns="http://www.w3.org/2000/svg" width="26.871" height="26.007" viewBox="0 0 26.871 26.007"><defs><style>.a{fill:#d06666;}</style></defs><g transform="translate(0 0)"><path class="a" d="M421.756,0V16.357H408a10.144,10.144,0,0,0-4.47,1.017,11,11,0,0,0-3.606,2.767V0Z" transform="translate(-394.885)"/><path class="a" d="M420.814,96.311v2.975a3.557,3.557,0,0,1-.206,1.237,3.027,3.027,0,0,1-.6,1,2.847,2.847,0,0,1-.934.682,2.794,2.794,0,0,1-1.184.249H403.15c.076-.153.155-.305.233-.46q.334-.654.695-1.377a8.5,8.5,0,0,1,2.645-3.116,6.44,6.44,0,0,1,3.841-1.2h10.248Z" transform="translate(-397.449 -76.449)"/><path class="a" d="M377.58,12.148l.594-.6-2.4,2.4a.946.946,0,0,0-.276.668V35.175h1.53V13.482a1.891,1.891,0,0,1,.551-1.334Z" transform="translate(-375.5 -9.168)"/></g></svg>