<svg xmlns="http://www.w3.org/2000/svg" width="178.374" height="88.869" viewBox="0 0 178.374 88.869">
  <g id="logo" transform="translate(-131.053 -45.227)">
    <path id="Path_664" data-name="Path 664" d="M38.16-44.58a16.659,16.659,0,0,1,.57,4.02,14.8,14.8,0,0,1-.33,3.54,14.692,14.692,0,0,1-1.08,3.06,16.422,16.422,0,0,1-1.56,2.64,17.4,17.4,0,0,1-1.89,2.16,21.015,21.015,0,0,1-2.01,1.74q-.96.72-1.98,1.38a18.456,18.456,0,0,1-1.68.99q-.66.33-1.26.57a1.514,1.514,0,0,1-.36.18h-.06l-.24.12a1.5,1.5,0,0,1-1.17-.12,1.7,1.7,0,0,1-.81-.9,1.484,1.484,0,0,1,1.02-1.98,5.615,5.615,0,0,0-.48-.72,1.56,1.56,0,0,1-.39-1.14,1.565,1.565,0,0,1,.51-1.11,1.41,1.41,0,0,1,1.14-.39,1.57,1.57,0,0,1,1.08.54,4.75,4.75,0,0,1,.96,1.38A19.634,19.634,0,0,0,30-29.94q.9-.72,1.98-1.77a9.588,9.588,0,0,0,1.74-2.25,22.522,22.522,0,0,0,1.26-2.76,8.213,8.213,0,0,0,.54-3.27,23.87,23.87,0,0,0-.48-3.81q-.96-3.96-3.93-3.81t-6.99,3.3a35.842,35.842,0,0,0-7.02,7.32,17.917,17.917,0,0,0-3.48,7.23,19.43,19.43,0,0,0,.03,6.18,26.379,26.379,0,0,0,1.65,6.06q1.14,2.76,1.8,4.11t1.14,2.19a6.546,6.546,0,0,1,.6.87q.3.51.93,1.62a16.187,16.187,0,0,1,1.08,2.31q.45,1.2.84,2.58a9.694,9.694,0,0,1,.36,2.85,8.075,8.075,0,0,1-.51,2.73q-1.56,4.2-7.44,5.58a15.3,15.3,0,0,1-3.48.42,9.232,9.232,0,0,1-7.68-3.6A13,13,0,0,1,.48-1.53a20.386,20.386,0,0,1-.3-6.36A16.443,16.443,0,0,1,1.5-12.9a1.669,1.669,0,0,1,.93-.84,1.47,1.47,0,0,1,1.23.06,1.553,1.553,0,0,1,.81.93,1.4,1.4,0,0,1-.09,1.17A13.848,13.848,0,0,0,3.3-7.44a16.982,16.982,0,0,0,.21,5.19A9.6,9.6,0,0,0,5.4,2.16q2.58,3.3,7.98,2.04,4.2-.96,5.16-3.54a7.1,7.1,0,0,0-.3-5.16,21.689,21.689,0,0,0-2.58-4.92.173.173,0,0,0-.12-.06q-.12-.24-.33-.63t-.75-1.44q-.54-1.05-1.02-2.13t-1.11-2.7a24.24,24.24,0,0,1-.99-3.12q-.36-1.5-.75-3.45a17.021,17.021,0,0,1-.36-3.63,35.9,35.9,0,0,1,.27-3.66,17.582,17.582,0,0,1,2.61-6.39,39.79,39.79,0,0,1,5.1-6.63,31.924,31.924,0,0,1,6.42-5.22,13.51,13.51,0,0,1,6.33-2.28,6.1,6.1,0,0,1,1.8.15,8.411,8.411,0,0,1,1.98.78,5.606,5.606,0,0,1,1.98,1.92A11.37,11.37,0,0,1,38.16-44.58ZM53.22-14.85a1.494,1.494,0,0,1,1.05.63,1.458,1.458,0,0,1,.27,1.17A1.7,1.7,0,0,1,53.88-12Q48.24-7.86,43.5-3.84q-2.76,2.4-4.8,2.4a2.855,2.855,0,0,1-1.62-.48Q35.16-3.06,35.04-6.9A17.352,17.352,0,0,1,30.3-3.6a9.478,9.478,0,0,1-3.66,1.08,3.886,3.886,0,0,1-2.19-.36,3.2,3.2,0,0,1-.99-1.02q-1.26-1.98.48-5.16a22.194,22.194,0,0,1,5.82-6.42q5.34-4.26,8.94-2.94a4.541,4.541,0,0,1,2.22,1.62A5.977,5.977,0,0,1,42-14.58a1.577,1.577,0,0,1-.24,1.2,1.594,1.594,0,0,1-.99.69,1.511,1.511,0,0,1-1.2-.21,1.47,1.47,0,0,1-.69-1.02,2.055,2.055,0,0,0-1.26-1.56q-1.92-.66-5.88,2.46A24.258,24.258,0,0,0,28.2-9.6a12.1,12.1,0,0,0-1.77,2.61,2.956,2.956,0,0,0-.33,1.35,5.053,5.053,0,0,0,2.82-.84.46.46,0,0,0,.18-.06q2.94-1.32,6.78-5.76a1.49,1.49,0,0,1,1.92-.36,1.449,1.449,0,0,1,.84,1.74,20.306,20.306,0,0,0-.39,4.08q.03,1.86.45,2.22a5.96,5.96,0,0,0,2.64-1.56.173.173,0,0,0,.12-.06q5.1-4.32,10.56-8.34A1.684,1.684,0,0,1,53.22-14.85Zm27-.81a1.468,1.468,0,0,1,1.14.24,1.727,1.727,0,0,1,.72,1.02v.36a1.132,1.132,0,0,1-.06.36q-.06.18-.12.33a.8.8,0,0,1-.18.27,3.275,3.275,0,0,1-.27.24,1.194,1.194,0,0,1-.3.18q-.15.06-.33.12-.9.18-3.6,2.64Q75.9-8.7,75.09-8.01a21.889,21.889,0,0,1-2.25,1.62,13.256,13.256,0,0,1-2.82,1.41,4.232,4.232,0,0,1-3.9-.18,3.231,3.231,0,0,1-1.23-1.47,6.99,6.99,0,0,1-.57-1.74q-.12-.75-.24-2.13a11.9,11.9,0,0,0-.48-3q-.24-.6-.54-.66-2.28-.36-11.22,9.9Q51-3.24,50.52-2.76a9.314,9.314,0,0,1-1.2.99A2.345,2.345,0,0,1,48-1.26a1.8,1.8,0,0,1-.96-.3q-1.5-1.02.18-4.44a.173.173,0,0,0,.06-.12q6.3-10.86,7.44-13.26a1.7,1.7,0,0,1-.93-.57,1.479,1.479,0,0,1-.39-.99,1.557,1.557,0,0,1,.48-1.14,1.557,1.557,0,0,1,1.14-.48,3.05,3.05,0,0,1,2.7,1.32,3.063,3.063,0,0,1,0,3q-.6,1.26-3.78,6.96,6.24-6.6,9.66-6a3.82,3.82,0,0,1,2.94,2.58,15.034,15.034,0,0,1,.72,3.9q.24,2.76.6,3A1.976,1.976,0,0,0,69-7.98q2.28-.78,6.06-4.26,1.2-1.08,1.8-1.59a11.5,11.5,0,0,1,1.56-1.08A6.07,6.07,0,0,1,80.22-15.66Zm30.84-21.33a1.553,1.553,0,0,1,.84.9,1.4,1.4,0,0,1-.06,1.2,1.7,1.7,0,0,1-.9.81A113.366,113.366,0,0,1,93-28.92q-1.26.24-3.06.42L72.06,6.72a1.539,1.539,0,0,1,1.5.66,1.522,1.522,0,0,1,.24,1.17,1.7,1.7,0,0,1-.66,1.05,5.519,5.519,0,0,1-2.88,1.2,2.252,2.252,0,0,1-1.32-.42q-1.5-1.2-.3-3.96a.173.173,0,0,1,.06-.12L86.22-28.2q-1.98.12-3.96.12a2.3,2.3,0,0,1,.09.81,1.273,1.273,0,0,1-.3.72,1.369,1.369,0,0,1-.63.45,1.259,1.259,0,0,1-.66.18,1.465,1.465,0,0,1-1.44-.96,10.74,10.74,0,0,0-.72-1.32,11.469,11.469,0,0,1-3.45-.69,2.087,2.087,0,0,1-1.17-1.17A1.774,1.774,0,0,1,75-32.46a3.46,3.46,0,0,1,2.94-.36,5.337,5.337,0,0,1,2.22,1.5,63.072,63.072,0,0,0,7.74-.12l6.3-12.42a1.447,1.447,0,0,1,.93-.78,1.649,1.649,0,0,1,1.23.12,1.555,1.555,0,0,1,.81.9,1.487,1.487,0,0,1-.09,1.2l-5.34,10.5a1.8,1.8,0,0,0,.3-.06,1.763,1.763,0,0,1,.42-.06,117.289,117.289,0,0,0,17.4-5.04A1.669,1.669,0,0,1,111.06-36.99Zm-2.1,21.45a1.446,1.446,0,0,1,.84.87,1.546,1.546,0,0,1-.03,1.23,1.559,1.559,0,0,1-.87.84q-2.22.84-6.36,4.5-1.56,1.38-2.4,2.07a27.482,27.482,0,0,1-2.25,1.62,11.336,11.336,0,0,1-2.7,1.35,8.57,8.57,0,0,1-2.67.42,7.89,7.89,0,0,1-1.92-.24,2.724,2.724,0,0,1-1.98-1.74q-.6-1.56.66-4.86a34.04,34.04,0,0,1,2.76-5.73q1.5-2.43,3.18-4.89a1.4,1.4,0,0,1,1.02-.63,1.684,1.684,0,0,1,1.2.27,1.5,1.5,0,0,1,.66,1.02,1.453,1.453,0,0,1-.3,1.2,58.918,58.918,0,0,0-4.53,7.5q-1.83,3.66-1.71,4.86a5.613,5.613,0,0,0,2.16-.06,7.067,7.067,0,0,0,2.31-1.05q1.23-.81,2.04-1.47t2.37-2.04q.72-.66,1.14-.99t1.14-.93q.72-.6,1.23-.96t1.17-.81a11.385,11.385,0,0,1,1.32-.78q.66-.33,1.26-.57A1.713,1.713,0,0,1,108.96-15.54ZM98.82-23.76a1.543,1.543,0,0,1-.75-.99,1.6,1.6,0,0,1,.21-1.23l1.38-2.34a1.543,1.543,0,0,1,.99-.75,1.583,1.583,0,0,1,1.2.18,1.46,1.46,0,0,1,.72.96,1.761,1.761,0,0,1-.15,1.23l-1.44,2.4a1.559,1.559,0,0,1-1.38.72A1.72,1.72,0,0,1,98.82-23.76Zm32.1,8.91a1.494,1.494,0,0,1,1.05.63,1.458,1.458,0,0,1,.27,1.17,1.7,1.7,0,0,1-.66,1.05q-5.64,4.14-10.38,8.16-2.76,2.4-4.8,2.4a2.855,2.855,0,0,1-1.62-.48q-1.92-1.14-2.04-4.98A17.352,17.352,0,0,1,108-3.6a9.478,9.478,0,0,1-3.66,1.08,3.886,3.886,0,0,1-2.19-.36,3.2,3.2,0,0,1-.99-1.02q-1.26-1.98.48-5.16a22.194,22.194,0,0,1,5.82-6.42q5.34-4.26,8.94-2.94a4.541,4.541,0,0,1,2.22,1.62,5.977,5.977,0,0,1,1.08,2.22,1.577,1.577,0,0,1-.24,1.2,1.594,1.594,0,0,1-.99.69,1.511,1.511,0,0,1-1.2-.21,1.47,1.47,0,0,1-.69-1.02,2.055,2.055,0,0,0-1.26-1.56q-1.92-.66-5.88,2.46A24.259,24.259,0,0,0,105.9-9.6a12.1,12.1,0,0,0-1.77,2.61,2.956,2.956,0,0,0-.33,1.35,5.053,5.053,0,0,0,2.82-.84.46.46,0,0,0,.18-.06q2.94-1.32,6.78-5.76a1.49,1.49,0,0,1,1.92-.36,1.449,1.449,0,0,1,.84,1.74,20.306,20.306,0,0,0-.39,4.08q.03,1.86.45,2.22a5.96,5.96,0,0,0,2.64-1.56.173.173,0,0,0,.12-.06q5.1-4.32,10.56-8.34A1.684,1.684,0,0,1,130.92-14.85Zm23.46-.81a1.577,1.577,0,0,1,1.2.24,1.5,1.5,0,0,1,.66,1.02,1.577,1.577,0,0,1-.24,1.2,1.5,1.5,0,0,1-1.02.66,18.347,18.347,0,0,0-5.07,2.61,95.5,95.5,0,0,0-7.89,5.79q-2.76,6.42-6.51,13.35t-6.45,9.57q-3.6,3.72-6.18,3.72a2.782,2.782,0,0,1-1.26-.3q-2.22-1.14-1.38-5.88.66-4.02,6.24-10.26A112.717,112.717,0,0,1,139.44-6.18q.6-1.44.9-2.34-6.66,4.92-9.12,5.28a2.481,2.481,0,0,1-2.13-.54,4.581,4.581,0,0,1-1.47-2.28,19.956,19.956,0,0,1-.27-2.1,6.318,6.318,0,0,1,.36-2.49,14.48,14.48,0,0,1,1.17-2.61,9.457,9.457,0,0,1,2.19-2.49,15.5,15.5,0,0,1,3.39-2.13q5.28-2.4,7.74-.42a3.5,3.5,0,0,1,1.29,1.98,6.94,6.94,0,0,1,.3,1.89,5.733,5.733,0,0,1-.15,1.11,1.468,1.468,0,0,1-.66.96l.12.12a2.831,2.831,0,0,1,.84,2.64Q151.38-15.06,154.38-15.66ZM126.84,16.5q3.48-3.36,9.48-15.78a87.122,87.122,0,0,0-8.91,9.12q-3.57,4.32-4.05,7.02a7.917,7.917,0,0,0-.18,2.4,9.666,9.666,0,0,0,3.6-2.7Zm13.68-29.04.36-.12a1.609,1.609,0,0,1-.36-1.32q.3-1.38-.3-1.86a1.319,1.319,0,0,0-.78-.18A9.619,9.619,0,0,0,135.78-15a10.834,10.834,0,0,0-3.24,2.31,7.455,7.455,0,0,0-1.59,2.25,8.593,8.593,0,0,0-.45,1.74,3.381,3.381,0,0,0,.42,2.28,16.293,16.293,0,0,0,3.84-2.07q2.7-1.77,5.4-3.87A1.514,1.514,0,0,0,140.52-12.54Zm36.12-3.12a1.619,1.619,0,0,1,1.17.33,1.529,1.529,0,0,1,.6,1.05,1.515,1.515,0,0,1-.3,1.17,1.427,1.427,0,0,1-1.05.57q-2.1.3-7.08,3-5.04,2.76-7.26,3a5.95,5.95,0,0,1-1.44.06l-1.08.96a9.072,9.072,0,0,1-2.22,1.41,6.614,6.614,0,0,1-2.88.69,4.362,4.362,0,0,1-1.26-.18,4.129,4.129,0,0,1-2.88-3.18q-1.2-4.08,2.88-8.52a4.965,4.965,0,0,1,.12-1.08,10.944,10.944,0,0,1,2.28-4.83,6.323,6.323,0,0,1,3.78-2.37q3.48-.54,5.7,3.42,2.4,4.38-1.2,9.84,1.26-.54,3.96-2.04Q174-15.36,176.64-15.66Zm-21.9,9q1.08.36,2.94-.9A7.917,7.917,0,0,1,155.88-9a7.139,7.139,0,0,1-1.32-1.98,4.439,4.439,0,0,0-.6,3.36Q154.26-6.78,154.74-6.66Zm5.4-3.24q4.74-5.28,2.76-8.7-1.14-2.04-2.4-1.86a3.5,3.5,0,0,0-2.1,1.56,1.51,1.51,0,0,1,1.56.72,1.753,1.753,0,0,1,.18,1.2,1.5,1.5,0,0,1-.66,1.02,15.566,15.566,0,0,0-2.52,1.98,4.927,4.927,0,0,0,1.26,2.82A4.874,4.874,0,0,0,160.14-9.9Z" transform="translate(131 96)" fill="#e2725a"/>
    <path id="Path_663" data-name="Path 663" d="M9.168,0,6.752-3.44q-.448.032-.7.032H3.28V0H1.68V-11.2H6.048a5.188,5.188,0,0,1,3.424,1.04A3.527,3.527,0,0,1,10.72-7.3a3.746,3.746,0,0,1-.64,2.208A3.616,3.616,0,0,1,8.256-3.76L10.912,0ZM6-4.768a3.579,3.579,0,0,0,2.32-.656A2.283,2.283,0,0,0,9.12-7.3a2.26,2.26,0,0,0-.8-1.864A3.611,3.611,0,0,0,6-9.808H3.28v5.04Zm23.552.576a4.4,4.4,0,0,1-.032.464H22.64a2.663,2.663,0,0,0,.984,1.8,3.211,3.211,0,0,0,2.088.68A3.145,3.145,0,0,0,28.16-2.272l.848.992A3.714,3.714,0,0,1,27.576-.256,4.984,4.984,0,0,1,25.664.1,5.008,5.008,0,0,1,23.28-.456,3.937,3.937,0,0,1,21.672-2,4.427,4.427,0,0,1,21.1-4.24a4.5,4.5,0,0,1,.552-2.224,3.954,3.954,0,0,1,1.52-1.544A4.33,4.33,0,0,1,25.36-8.56a4.242,4.242,0,0,1,2.168.552,3.876,3.876,0,0,1,1.488,1.544A4.7,4.7,0,0,1,29.552-4.192ZM25.36-7.264a2.655,2.655,0,0,0-1.848.672,2.709,2.709,0,0,0-.872,1.76h5.44a2.727,2.727,0,0,0-.872-1.752A2.636,2.636,0,0,0,25.36-7.264ZM42.912.1a7.106,7.106,0,0,1-2-.28,4.392,4.392,0,0,1-1.5-.712l.64-1.216a4.594,4.594,0,0,0,1.36.64,5.6,5.6,0,0,0,1.616.24q2.016,0,2.016-1.152a.746.746,0,0,0-.272-.608,1.722,1.722,0,0,0-.68-.328q-.408-.1-1.16-.232a11.368,11.368,0,0,1-1.672-.368,2.577,2.577,0,0,1-1.112-.7,1.959,1.959,0,0,1-.464-1.392,2.174,2.174,0,0,1,.96-1.848,4.3,4.3,0,0,1,2.576-.7,7.1,7.1,0,0,1,1.7.208,4.561,4.561,0,0,1,1.392.56l-.656,1.216A4.411,4.411,0,0,0,43.2-7.248a2.83,2.83,0,0,0-1.488.32.966.966,0,0,0-.512.848.808.808,0,0,0,.288.656,1.821,1.821,0,0,0,.712.352q.424.112,1.192.256a12.937,12.937,0,0,1,1.656.376,2.473,2.473,0,0,1,1.08.68,1.894,1.894,0,0,1,.448,1.344,2.119,2.119,0,0,1-.984,1.832A4.647,4.647,0,0,1,42.912.1ZM62.064-.5a2.292,2.292,0,0,1-.832.44A3.475,3.475,0,0,1,60.208.1a2.72,2.72,0,0,1-1.984-.688,2.627,2.627,0,0,1-.7-1.968V-7.216H56.08V-8.48h1.44v-1.856h1.536V-8.48h2.432v1.264H59.056v4.592A1.49,1.49,0,0,0,59.4-1.568a1.281,1.281,0,0,0,.984.368,1.851,1.851,0,0,0,1.2-.4ZM75.808-8.56a3.835,3.835,0,0,1,2.7.864A3.336,3.336,0,0,1,79.44-5.12V0H77.984V-1.12a2.428,2.428,0,0,1-1.1.9A4.183,4.183,0,0,1,75.2.1a3.533,3.533,0,0,1-2.28-.688A2.207,2.207,0,0,1,72.064-2.4a2.227,2.227,0,0,1,.816-1.8,4.021,4.021,0,0,1,2.592-.68H77.9v-.3a1.958,1.958,0,0,0-.576-1.52,2.43,2.43,0,0,0-1.7-.528,4.49,4.49,0,0,0-1.472.248,3.792,3.792,0,0,0-1.216.664L72.3-7.472a4.644,4.644,0,0,1,1.568-.808A6.561,6.561,0,0,1,75.808-8.56Zm-.352,7.472a2.853,2.853,0,0,0,1.52-.392A2.243,2.243,0,0,0,77.9-2.592V-3.776H75.536q-1.952,0-1.952,1.312a1.187,1.187,0,0,0,.5,1.008A2.268,2.268,0,0,0,75.456-1.088ZM98.992-8.48V0H97.536V-1.28A3.087,3.087,0,0,1,96.312-.264,3.819,3.819,0,0,1,94.656.1,3.7,3.7,0,0,1,91.984-.84a3.651,3.651,0,0,1-.976-2.76V-8.48h1.536v4.7a2.633,2.633,0,0,0,.592,1.864,2.211,2.211,0,0,0,1.7.632,2.531,2.531,0,0,0,1.92-.736,2.889,2.889,0,0,0,.7-2.08V-8.48Zm13.2,1.424a2.621,2.621,0,0,1,1.184-1.12,4.3,4.3,0,0,1,1.9-.384v1.488a3,3,0,0,0-.352-.016,2.584,2.584,0,0,0-1.96.744,2.945,2.945,0,0,0-.712,2.12V0H110.72V-8.48h1.472Zm16.848-1.5a3.835,3.835,0,0,1,2.7.864,3.336,3.336,0,0,1,.936,2.576V0h-1.456V-1.12a2.428,2.428,0,0,1-1.1.9A4.183,4.183,0,0,1,128.432.1a3.533,3.533,0,0,1-2.28-.688A2.207,2.207,0,0,1,125.3-2.4a2.227,2.227,0,0,1,.816-1.8,4.021,4.021,0,0,1,2.592-.68h2.432v-.3a1.958,1.958,0,0,0-.576-1.52,2.43,2.43,0,0,0-1.7-.528,4.49,4.49,0,0,0-1.472.248,3.792,3.792,0,0,0-1.216.664l-.64-1.152A4.644,4.644,0,0,1,127.1-8.28,6.561,6.561,0,0,1,129.04-8.56Zm-.352,7.472a2.853,2.853,0,0,0,1.52-.392,2.243,2.243,0,0,0,.928-1.112V-3.776h-2.368q-1.952,0-1.952,1.312a1.187,1.187,0,0,0,.5,1.008A2.268,2.268,0,0,0,128.688-1.088Zm20.16-7.472a3.5,3.5,0,0,1,2.568.936,3.682,3.682,0,0,1,.952,2.744V0h-1.536V-4.7a2.6,2.6,0,0,0-.592-1.856,2.227,2.227,0,0,0-1.7-.624,2.643,2.643,0,0,0-1.968.728,2.844,2.844,0,0,0-.72,2.088V0H144.32V-8.48h1.472V-7.2a2.986,2.986,0,0,1,1.256-1.008A4.389,4.389,0,0,1,148.848-8.56ZM168.784-.5a2.292,2.292,0,0,1-.832.44A3.475,3.475,0,0,1,166.928.1a2.72,2.72,0,0,1-1.984-.688,2.627,2.627,0,0,1-.7-1.968V-7.216H162.8V-8.48h1.44v-1.856h1.536V-8.48h2.432v1.264h-2.432v4.592a1.49,1.49,0,0,0,.344,1.056,1.281,1.281,0,0,0,.984.368,1.851,1.851,0,0,0,1.2-.4Z" transform="translate(136 134)"/>
  </g>
</svg>
