<svg xmlns="http://www.w3.org/2000/svg" xmlns:xlink="http://www.w3.org/1999/xlink" width="58" height="58" viewBox="0 0 58 58"><defs><style>.a{fill:#fff;}.b{fill:#333;}.c{filter:url(#a);}</style><filter id="a" x="0" y="0" width="58" height="58" filterUnits="userSpaceOnUse"><feOffset dy="3" input="SourceAlpha"/><feGaussianBlur stdDeviation="3" result="b"/><feFlood flood-opacity="0.161"/><feComposite operator="in" in2="b"/><feComposite in="SourceGraphic"/></filter></defs><g transform="translate(8.7 6)"><g class="c" transform="matrix(1, 0, 0, 1, -8.7, -6)"><circle class="a" cx="20" cy="20" r="20" transform="translate(9 6)"/></g><path class="b" d="M13.851,11.381h2.47V7.676h3.705V5.205H16.321V1.5h-2.47V5.205H10.146v2.47h3.705ZM8.911,22.5a2.47,2.47,0,1,0,2.47,2.47A2.467,2.467,0,0,0,8.911,22.5Zm12.351,0a2.47,2.47,0,1,0,2.47,2.47A2.467,2.467,0,0,0,21.262,22.5ZM9.121,18.483l.037-.148,1.112-2.013h9.2a2.459,2.459,0,0,0,2.161-1.272L26.4,6.391,24.251,5.205h-.012L22.88,7.676l-3.409,6.176H10.8l-.161-.333L7.873,7.676,6.7,5.205,5.539,2.735H1.5v2.47H3.97L8.417,14.58,6.749,17.606a2.388,2.388,0,0,0-.309,1.186,2.477,2.477,0,0,0,2.47,2.47H23.732v-2.47H9.429A.314.314,0,0,1,9.121,18.483Z" transform="translate(6.05 5.563)"/></g></svg>